<?xml version="1.0" standalone="no"?>
<!DOCTYPE svg PUBLIC "-//W3C//DTD SVG 20010904//EN"
 "http://www.w3.org/TR/2001/REC-SVG-20010904/DTD/svg10.dtd">
<svg version="1.0" xmlns="http://www.w3.org/2000/svg"
 width="229.000000pt" height="229.000000pt" viewBox="0 0 229.000000 229.000000"
 preserveAspectRatio="xMidYMid meet">
<metadata>
Created by potrace 1.11, written by Peter Selinger 2001-2013
</metadata>
<g transform="translate(0.000000,229.000000) scale(0.100000,-0.100000)"
fill="#000000" stroke="none">
<path d="M135 2276 c-52 -19 -110 -82 -126 -136 -21 -70 -1 -135 76 -250 155
-231 213 -463 202 -809 -5 -142 -11 -196 -31 -278 -45 -179 -77 -249 -211
-462 -76 -121 -46 -255 71 -311 81 -40 172 -21 274 57 66 51 232 129 335 158
248 71 571 73 819 5 117 -32 228 -83 335 -153 53 -35 111 -69 130 -75 134 -47
271 48 271 188 0 63 -17 105 -79 195 -130 188 -195 399 -207 675 -14 300 55
587 192 791 81 121 94 150 94 214 0 97 -53 168 -148 196 -65 19 -135 -1 -229
-65 -219 -150 -452 -216 -756 -216 -302 0 -530 60 -732 194 -44 30 -95 61
-113 70 -47 24 -119 29 -167 12z m947 -503 l58 -57 58 57 c32 31 62 57 67 57
5 0 26 -17 47 -37 l38 -37 -62 -63 -63 -63 298 -298 297 -298 -40 -39 -40 -39
-65 64 -65 64 0 -257 0 -257 -205 0 -205 0 0 -55 0 -55 -55 0 -55 0 0 55 0 55
-210 0 -210 0 0 254 0 255 -57 -60 c-31 -32 -60 -59 -64 -59 -14 0 -79 61 -79
74 0 6 133 144 295 306 l295 294 -60 61 -60 60 37 38 c21 20 40 37 43 37 2 0
30 -26 62 -57z"/>
<path d="M915 1324 l-220 -223 45 -3 45 -3 3 -205 2 -205 148 2 147 2 3 205 2
206 253 0 252 0 -225 225 c-124 124 -227 224 -230 223 -3 -1 -104 -102 -225
-224z"/>
<path d="M1200 835 l0 -145 150 0 150 0 0 145 0 145 -150 0 -150 0 0 -145z"/>
</g>
</svg>
